<?xml version="1.0" encoding="UTF-8"?>
<!DOCTYPE svg PUBLIC "-//W3C//DTD SVG 1.1//EN" "http://www.w3.org/Graphics/SVG/1.1/DTD/svg11.dtd">
<!-- Creator: CorelDRAW 2020 (64 Bit) -->
<svg xmlns="http://www.w3.org/2000/svg" xml:space="preserve" width="48px" height="48px" version="1.1" style="shape-rendering:geometricPrecision; text-rendering:geometricPrecision; image-rendering:optimizeQuality; fill-rule:evenodd; clip-rule:evenodd"
viewBox="0 0 48 48"
 xmlns:xlink="http://www.w3.org/1999/xlink"
 xmlns:xodm="http://www.corel.com/coreldraw/odm/2003">
 <defs>
  <style type="text/css">
   <![CDATA[
    .fil0 {fill:white}
   ]]>
  </style>
 </defs>
 <g id="Camada_x0020_1">
  <metadata id="CorelCorpID_0Corel-Layer"/>
  <path class="fil0" d="M26.07 37.89c-0.23,0.54 -3.6,2.25 -4.84,0.87 -1.12,-1.27 -0.6,-3.82 -1.69,-5.15 -1.05,0.08 -2.09,1.86 -2.99,2.99l-5.25 6.48c-0.46,0.54 -0.87,0.98 -1.38,1.49 -0.42,0.44 -1.27,1.02 -1.46,1.57 8.94,0.11 19.12,0.07 28.12,0.01l1 -0.02c-0.02,-0.74 -0.36,-1.88 -0.5,-2.62 -0.72,-3.57 -0.58,-6.41 -0.97,-8.52 -0.61,0.1 -0.81,0.55 -1.56,1.24 -0.5,0.46 -0.9,0.79 -1.49,1.26 -2.28,1.85 -4.28,3.07 -7.3,3.67 -1.47,0.29 -3.77,-0.02 -4.45,-0.89l0.3 -0.12c0.04,-0.01 0.07,-0.02 0.12,-0.03 0.96,-0.16 1.36,0.16 3.33,-0.77 7.75,-3.65 12.64,-18.73 14.15,-18.58 0.93,0.49 1.2,4.63 1.39,6 0.88,6.43 1.37,11.3 2.94,17.64l0.29 1.08c0.21,0.4 0.07,0.17 0.24,0.33 0.85,-0.53 0.64,-1.36 0.64,-2.68l0 -39.58c0,-2.16 -1.84,-1.9 -2.37,-1.48l-6.39 6.84c-10.45,11.21 -21.34,23.16 -31.88,34.3 -1.19,1.26 -0.94,2.38 0.03,2.8 0.86,0.37 1.47,-0.52 2.52,-1.62 0.82,-0.86 1.37,-1.49 2.12,-2.38 2.92,-3.49 9.22,-12.73 11.69,-14.79 3.65,-3.04 2.13,4.15 3.63,8.21 0.78,2.09 0.98,1.85 2.01,2.45z"/>
 </g>
</svg>
