<?xml version="1.0" encoding="UTF-8"?>
<!DOCTYPE svg PUBLIC "-//W3C//DTD SVG 1.1//EN" "http://www.w3.org/Graphics/SVG/1.1/DTD/svg11.dtd">
<!-- Creator: CorelDRAW 2020 (64 Bit) -->
<svg xmlns="http://www.w3.org/2000/svg" xml:space="preserve" width="1170px" height="579px" version="1.1" style="shape-rendering:geometricPrecision; text-rendering:geometricPrecision; image-rendering:optimizeQuality; fill-rule:evenodd; clip-rule:evenodd"
viewBox="0 0 1170 579"
 xmlns:xlink="http://www.w3.org/1999/xlink"
 xmlns:xodm="http://www.corel.com/coreldraw/odm/2003">
 <defs>
  <style type="text/css">
   <![CDATA[
    .fil0 {fill:#E20514}
    .fil1 {fill:black;fill-rule:nonzero}
   ]]>
  </style>
 </defs>
 <g id="Camada_x0020_1">
  <metadata id="CorelCorpID_0Corel-Layer"/>
  <g id="_1205625264928">
   <g>
    <path class="fil0" d="M221.21 413.97c-2.07,4.78 -32.15,20.06 -43.13,7.71 -10.07,-11.33 -5.42,-34.11 -15.15,-45.89 -9.35,0.7 -18.59,16.57 -26.63,26.61l-46.89 57.88c-4.09,4.83 -7.76,8.69 -12.27,13.3 -3.81,3.89 -11.33,9.02 -13.06,13.93 79.8,1.01 170.58,0.67 250.94,0.1l8.93 -0.13c-0.24,-6.64 -3.21,-16.81 -4.53,-23.41 -6.39,-31.86 -5.12,-57.19 -8.64,-76.05 -5.42,0.96 -7.19,4.96 -13.94,11.11 -4.45,4.06 -8.01,7.03 -13.24,11.26 -20.34,16.45 -38.22,27.35 -65.18,32.72 -13.07,2.6 -33.62,-0.22 -39.64,-7.97l2.68 -1.08c0.32,-0.07 0.63,-0.15 0.99,-0.21 8.61,-1.46 12.14,1.44 29.76,-6.87 69.12,-32.63 112.75,-167.18 126.2,-165.8 8.36,4.38 10.79,41.31 12.46,53.51 7.81,57.36 12.26,100.89 26.21,157.45l2.64 9.61c1.83,3.6 0.59,1.47 2.15,2.92 7.5,-4.71 5.65,-12.11 5.65,-23.9l0.01 -353.18c0,-19.28 -16.45,-16.94 -21.12,-13.19l-57 61.05c-93.29,100.04 -190.41,206.67 -284.48,306.04 -10.65,11.25 -8.44,21.23 0.27,25 7.64,3.31 13.08,-4.61 22.48,-14.5 7.28,-7.66 12.18,-13.24 18.88,-21.22 26.08,-31.08 82.28,-113.61 104.31,-131.96 32.61,-27.16 19,37.01 32.44,73.26 6.93,18.68 8.7,16.55 17.9,21.9z"/>
   </g>
   <path class="fil1" d="M419.92 329.07l-12.25 0 61.94 -145.96 -4.23 -10.02 30.75 0 66.18 155.98 -30.75 0 -22.96 -54.15 -65.73 0 -22.95 54.15zm55.93 -131.47l-28.08 65.96 55.93 0 -27.85 -65.96z"/>
   <polygon id="1" class="fil1" points="560.44,173.09 592.97,173.09 638.42,252.41 683.88,173.09 712.85,173.09 712.85,329.07 684.55,329.07 684.55,194.48 635.08,281.16 622.16,281.16 577.59,203.17 577.59,329.07 566.45,329.07 566.45,183.56 "/>
   <polygon id="2" class="fil1" points="719.22,173.09 751.76,173.09 797.21,252.41 842.67,173.09 871.64,173.09 871.64,329.07 843.34,329.07 843.34,194.48 793.87,281.16 780.95,281.16 736.38,203.17 736.38,329.07 725.24,329.07 725.24,183.56 "/>
   <path id="3" class="fil1" d="M886.7 329.07l-12.25 0 61.94 -145.96 -4.23 -10.02 30.75 0 66.18 155.98 -30.75 0 -22.95 -54.15 -65.74 0 -22.95 54.15zm55.93 -131.47l-28.07 65.96 55.92 0 -27.85 -65.96z"/>
   <polygon id="4" class="fil1" points="1033.23,180.44 1027.22,173.09 1063.54,173.09 1141.08,268.9 1141.08,173.09 1152.22,173.09 1152.22,329.07 1141.08,329.07 1141.08,314.14 1044.37,194.26 1044.37,329.07 1033.23,329.07 "/>
   <path class="fil1" d="M409.18 397.66l-1.51 0 12.39 -29.14 -0.9 -2.05 3.88 0 13.24 31.19 -3.88 0 -4.81 -11.36 -13.6 0 -4.81 11.36zm11.63 -27.36l-6.24 14.62 12.44 0 -6.2 -14.62z"/>
   <path id="1" class="fil1" d="M452.81 380.68c3.3,1.34 5.42,2.29 6.37,2.86 2.94,1.75 4.4,4.07 4.37,6.95 -0.03,1.48 -0.4,2.76 -1.11,3.83 -0.72,1.07 -1.66,1.88 -2.83,2.43 -1.18,0.55 -2.37,0.94 -3.59,1.18 -1.22,0.24 -2.5,0.36 -3.83,0.36 -2.71,0 -5.29,-0.44 -7.76,-1.32 -2.46,-0.87 -4.36,-1.88 -5.7,-3.01l2.36 -2.18c0.89,1.4 2.41,2.6 4.57,3.61 2.15,1.01 4.39,1.52 6.7,1.52 0.75,0 1.51,-0.06 2.3,-0.18 0.79,-0.12 1.67,-0.34 2.65,-0.67 0.98,-0.33 1.79,-0.88 2.43,-1.65 0.64,-0.77 0.97,-1.71 1,-2.81 0.03,-0.92 -0.15,-1.74 -0.53,-2.47 -0.39,-0.73 -0.95,-1.34 -1.7,-1.83 -0.74,-0.49 -1.38,-0.87 -1.93,-1.13 -0.55,-0.27 -1.26,-0.57 -2.12,-0.89 -5.53,-2.03 -9.39,-3.99 -11.59,-5.89 -2.2,-1.9 -3.25,-3.95 -3.16,-6.15 0.09,-2.37 1.15,-4.15 3.18,-5.32 2.04,-1.18 4.41,-1.76 7.11,-1.76 2.38,0 4.76,0.43 7.13,1.29 2.38,0.86 4.12,1.87 5.22,3.03l-2.37 2.18c-0.71,-1.45 -2.08,-2.67 -4.09,-3.65 -2.02,-0.98 -3.96,-1.47 -5.8,-1.47 -1.84,0 -3.56,0.49 -5.15,1.47 -1.59,0.98 -2.32,2.29 -2.2,3.92 0.06,0.89 0.42,1.75 1.07,2.56 0.65,0.82 1.46,1.52 2.43,2.1 0.96,0.58 1.97,1.1 3.01,1.58 1.03,0.47 2.02,0.91 2.94,1.29 0.29,0.09 0.5,0.17 0.62,0.22z"/>
   <path id="2" class="fil1" d="M480.75 380.68c3.3,1.34 5.42,2.29 6.37,2.86 2.95,1.75 4.4,4.07 4.37,6.95 -0.03,1.48 -0.4,2.76 -1.11,3.83 -0.72,1.07 -1.66,1.88 -2.83,2.43 -1.18,0.55 -2.37,0.94 -3.59,1.18 -1.22,0.24 -2.5,0.36 -3.83,0.36 -2.71,0 -5.29,-0.44 -7.76,-1.32 -2.46,-0.87 -4.36,-1.88 -5.7,-3.01l2.36 -2.18c0.89,1.4 2.42,2.6 4.57,3.61 2.15,1.01 4.39,1.52 6.71,1.52 0.74,0 1.5,-0.06 2.29,-0.18 0.79,-0.12 1.67,-0.34 2.65,-0.67 0.98,-0.33 1.79,-0.88 2.43,-1.65 0.64,-0.77 0.97,-1.71 1,-2.81 0.03,-0.92 -0.14,-1.74 -0.53,-2.47 -0.39,-0.73 -0.95,-1.34 -1.69,-1.83 -0.75,-0.49 -1.39,-0.87 -1.94,-1.13 -0.55,-0.27 -1.26,-0.57 -2.12,-0.89 -5.53,-2.03 -9.39,-3.99 -11.59,-5.89 -2.19,-1.9 -3.25,-3.95 -3.16,-6.15 0.09,-2.37 1.15,-4.15 3.19,-5.32 2.03,-1.18 4.4,-1.76 7.1,-1.76 2.38,0 4.76,0.43 7.13,1.29 2.38,0.86 4.12,1.87 5.22,3.03l-2.36 2.18c-0.72,-1.45 -2.08,-2.67 -4.1,-3.65 -2.02,-0.98 -3.95,-1.47 -5.8,-1.47 -1.84,0 -3.55,0.49 -5.14,1.47 -1.59,0.98 -2.33,2.29 -2.21,3.92 0.06,0.89 0.42,1.75 1.07,2.56 0.65,0.82 1.46,1.52 2.43,2.1 0.96,0.58 1.97,1.1 3.01,1.58 1.04,0.47 2.02,0.91 2.94,1.29 0.29,0.09 0.5,0.17 0.62,0.22z"/>
   <path id="3" class="fil1" d="M499.16 393.74c-3.03,-2.97 -4.55,-6.86 -4.55,-11.67 0,-4.82 1.52,-8.71 4.55,-11.68 3.03,-2.97 6.96,-4.46 11.81,-4.46 4.84,0 8.78,1.49 11.81,4.46 3.03,2.97 4.54,6.86 4.54,11.68 0,4.81 -1.51,8.7 -4.54,11.67 -3.03,2.97 -6.97,4.46 -11.81,4.46 -4.85,0 -8.78,-1.49 -11.81,-4.46zm2.74 -22.39c-2.31,2.72 -3.46,6.29 -3.46,10.72 0,4.42 1.15,8 3.46,10.71 2.3,2.72 5.32,4.08 9.07,4.08 3.74,0 6.76,-1.36 9.06,-4.08 2.31,-2.71 3.46,-6.29 3.46,-10.71 0,-4.43 -1.15,-8 -3.46,-10.72 -2.3,-2.72 -5.32,-4.08 -9.06,-4.08 -3.75,0 -6.77,1.36 -9.07,4.08z"/>
   <path id="4" class="fil1" d="M534.05 381.62c0,4.16 1.14,7.63 3.41,10.41 2.27,2.77 5.32,4.21 9.16,4.3 2.55,0 5.03,-0.49 7.44,-1.45 2.41,-0.97 4.13,-2.44 5.17,-4.44l0.71 0.63c-1.22,2.2 -2.98,3.94 -5.28,5.21 -2.3,1.28 -5,1.92 -8.09,1.92 -4.84,0 -8.74,-1.48 -11.69,-4.44 -2.96,-2.95 -4.44,-6.85 -4.44,-11.69 0,-4.85 1.48,-8.75 4.44,-11.7 2.95,-2.96 6.85,-4.44 11.69,-4.44 2.97,0 5.62,0.58 7.94,1.74 2.31,1.16 4.17,2.81 5.57,4.95l-2.63 2.36c-0.98,-2.35 -2.4,-4.22 -4.26,-5.61 -1.86,-1.4 -4.09,-2.1 -6.71,-2.1 -3.68,0 -6.67,1.34 -8.98,4.01 -2.3,2.68 -3.45,6.12 -3.45,10.34z"/>
   <polygon id="5" class="fil1" points="568.32,366.47 568.32,397.66 564.75,397.66 564.75,366.47 "/>
   <path id="6" class="fil1" d="M573.85 397.66l-1.52 0 12.39 -29.14 -0.89 -2.05 3.88 0 13.23 31.19 -3.88 0 -4.81 -11.36 -13.59 0 -4.81 11.36zm11.63 -27.36l-6.24 14.62 12.43 0 -6.19 -14.62z"/>
   <path id="7" class="fil1" d="M601.16 382.07c0,-4.85 1.48,-8.75 4.44,-11.7 2.95,-2.96 6.85,-4.44 11.7,-4.44 2.97,0 5.61,0.58 7.93,1.74 2.32,1.16 4.17,2.81 5.57,4.95l-2.63 2.36c-0.98,-2.35 -2.4,-4.22 -4.26,-5.61 -1.85,-1.4 -4.09,-2.1 -6.7,-2.1 -3.69,0 -6.68,1.34 -8.98,4.01 -2.3,2.68 -3.46,6.12 -3.46,10.34 0,4.16 1.14,7.63 3.41,10.41 2.28,2.77 5.34,4.21 9.21,4.3 2.55,0 5.02,-0.49 7.42,-1.45 2.39,-0.97 4.1,-2.44 5.14,-4.44l0.72 0.63c-2.65,4.75 -7.33,7.13 -14.04,7.13l-0.54 1.29c1.37,0.3 2.35,0.83 2.94,1.6 0.6,0.78 0.81,1.7 0.63,2.77 -0.42,1.9 -1.9,2.85 -4.46,2.85 -0.89,0 -1.87,-0.1 -2.94,-0.31l0.36 -1.74c0.74,0.21 1.44,0.31 2.09,0.31 1.4,0 2.19,-0.56 2.36,-1.69 0.09,-0.71 -0.12,-1.3 -0.64,-1.76 -0.52,-0.46 -1.08,-0.74 -1.67,-0.83l-0.85 -0.17 1.11 -2.45c-4.22,-0.48 -7.58,-2.16 -10.09,-5.04 -2.51,-2.88 -3.77,-6.54 -3.77,-10.96z"/>
   <path id="8" class="fil1" d="M634.32 397.66l-1.51 0 12.38 -29.14 -0.89 -2.05 3.88 0 13.24 31.19 -3.88 0 -4.82 -11.36 -13.59 0 -4.81 11.36zm11.63 -27.36l-6.24 14.62 12.44 0 -6.2 -14.62zm-4.46 -4.63l-1.06 0c0.14,-3.09 1.27,-4.64 3.38,-4.64 0.92,0 1.95,0.25 3.08,0.76 1.22,0.53 2.21,0.8 2.98,0.8 0.45,0 0.79,-0.09 1.03,-0.29 0.24,-0.19 0.34,-0.51 0.31,-0.96l1.07 0c0.06,1.46 -0.19,2.55 -0.74,3.28 -0.55,0.73 -1.31,1.09 -2.29,1.09 -0.92,0 -1.95,-0.3 -3.08,-0.89 -1.04,-0.54 -1.93,-0.8 -2.67,-0.8 -1.16,0 -1.83,0.55 -2.01,1.65z"/>
   <path id="9" class="fil1" d="M666.18 393.74c-3.03,-2.97 -4.54,-6.86 -4.54,-11.67 0,-4.82 1.51,-8.71 4.54,-11.68 3.03,-2.97 6.97,-4.46 11.81,-4.46 4.85,0 8.78,1.49 11.81,4.46 3.03,2.97 4.55,6.86 4.55,11.68 0,4.81 -1.52,8.7 -4.55,11.67 -3.03,2.97 -6.96,4.46 -11.81,4.46 -4.84,0 -8.78,-1.49 -11.81,-4.46zm2.74 -22.39c-2.3,2.72 -3.45,6.29 -3.45,10.72 0,4.42 1.15,8 3.45,10.71 2.31,2.72 5.33,4.08 9.07,4.08 3.75,0 6.77,-1.36 9.07,-4.08 2.3,-2.71 3.46,-6.29 3.46,-10.71 0,-4.43 -1.16,-8 -3.46,-10.72 -2.3,-2.72 -5.32,-4.08 -9.07,-4.08 -3.74,0 -6.76,1.36 -9.07,4.08z"/>
   <path id="10" class="fil1" d="M715 366.47l10.83 0c4.66,0 8.4,1.43 11.23,4.28 2.82,2.85 4.23,6.67 4.23,11.45 0,4.63 -1.42,8.37 -4.26,11.21 -2.83,2.84 -6.57,4.25 -11.2,4.25l-10.83 0 0 -31.19zm8.64 1.38l-5.08 0 0 28.43 5.08 0c4.25,0 7.66,-1.3 10.23,-3.9 2.57,-2.6 3.85,-6.08 3.85,-10.45 0,-4.25 -1.29,-7.65 -3.87,-10.22 -2.59,-2.57 -5.99,-3.86 -10.21,-3.86z"/>
   <path id="11" class="fil1" d="M748.95 393.74c-3.03,-2.97 -4.54,-6.86 -4.54,-11.67 0,-4.82 1.51,-8.71 4.54,-11.68 3.03,-2.97 6.97,-4.46 11.81,-4.46 4.85,0 8.78,1.49 11.81,4.46 3.03,2.97 4.55,6.86 4.55,11.68 0,4.81 -1.52,8.7 -4.55,11.67 -3.03,2.97 -6.96,4.46 -11.81,4.46 -4.84,0 -8.78,-1.49 -11.81,-4.46zm2.75 -22.39c-2.31,2.72 -3.46,6.29 -3.46,10.72 0,4.42 1.15,8 3.46,10.71 2.3,2.72 5.32,4.08 9.06,4.08 3.75,0 6.77,-1.36 9.07,-4.08 2.31,-2.71 3.46,-6.29 3.46,-10.71 0,-4.43 -1.15,-8 -3.46,-10.72 -2.3,-2.72 -5.32,-4.08 -9.07,-4.08 -3.74,0 -6.76,1.36 -9.06,4.08z"/>
   <path id="12" class="fil1" d="M793.43 380.68c3.3,1.34 5.42,2.29 6.37,2.86 2.94,1.75 4.4,4.07 4.37,6.95 -0.03,1.48 -0.4,2.76 -1.12,3.83 -0.71,1.07 -1.65,1.88 -2.82,2.43 -1.18,0.55 -2.37,0.94 -3.59,1.18 -1.22,0.24 -2.5,0.36 -3.84,0.36 -2.7,0 -5.28,-0.44 -7.75,-1.32 -2.47,-0.87 -4.37,-1.88 -5.7,-3.01l2.36 -2.18c0.89,1.4 2.41,2.6 4.57,3.61 2.15,1.01 4.39,1.52 6.7,1.52 0.75,0 1.51,-0.06 2.3,-0.18 0.79,-0.12 1.67,-0.34 2.65,-0.67 0.98,-0.33 1.79,-0.88 2.43,-1.65 0.64,-0.77 0.97,-1.71 1,-2.81 0.03,-0.92 -0.15,-1.74 -0.53,-2.47 -0.39,-0.73 -0.95,-1.34 -1.7,-1.83 -0.74,-0.49 -1.39,-0.87 -1.94,-1.13 -0.54,-0.27 -1.25,-0.57 -2.11,-0.89 -5.53,-2.03 -9.39,-3.99 -11.59,-5.89 -2.2,-1.9 -3.25,-3.95 -3.16,-6.15 0.09,-2.37 1.15,-4.15 3.18,-5.32 2.04,-1.18 4.41,-1.76 7.11,-1.76 2.38,0 4.75,0.43 7.13,1.29 2.38,0.86 4.12,1.87 5.22,3.03l-2.37 2.18c-0.71,-1.45 -2.08,-2.67 -4.1,-3.65 -2.02,-0.98 -3.95,-1.47 -5.79,-1.47 -1.84,0 -3.56,0.49 -5.15,1.47 -1.59,0.98 -2.32,2.29 -2.2,3.92 0.06,0.89 0.41,1.75 1.07,2.56 0.65,0.82 1.46,1.52 2.43,2.1 0.96,0.58 1.96,1.1 3,1.58 1.04,0.47 2.02,0.91 2.94,1.29 0.3,0.09 0.51,0.17 0.63,0.22z"/>
   <polygon id="13" class="fil1" points="823.26,366.47 827.4,366.47 837.65,384.47 847.95,366.47 851.64,366.47 851.64,397.66 848.08,397.66 848.08,368.96 837.16,388.08 835.6,388.08 825.8,370.92 825.8,397.66 824.46,397.66 824.46,368.56 "/>
   <path id="14" class="fil1" d="M857.88 387.32l0 -20.85 3.57 0 0 21.12c0,2.77 0.86,5 2.58,6.71 1.73,1.71 3.85,2.56 6.38,2.56 2.49,0 4.59,-0.84 6.3,-2.52 1.71,-1.67 2.56,-3.94 2.56,-6.79l0 -21.08 1.34 0 0 20.54c0,3.63 -1.1,6.4 -3.3,8.31 -2.2,1.92 -4.91,2.88 -8.15,2.88 -3.33,0 -6.04,-0.99 -8.14,-2.96 -2.09,-1.98 -3.14,-4.62 -3.14,-7.92z"/>
   <polygon id="15" class="fil1" points="886.49,367.94 885.29,366.47 889.92,366.47 908.46,389.11 908.46,366.47 909.8,366.47 909.8,397.66 908.46,397.66 908.46,394.77 887.83,369.59 887.83,397.66 886.49,397.66 "/>
   <polygon id="16" class="fil1" points="919.6,366.47 919.6,397.66 916.04,397.66 916.04,366.47 "/>
   <path id="17" class="fil1" d="M927.89 381.62c0,4.16 1.14,7.63 3.41,10.41 2.27,2.77 5.33,4.21 9.16,4.3 2.56,0 5.04,-0.49 7.44,-1.45 2.41,-0.97 4.13,-2.44 5.17,-4.44l0.72 0.63c-1.22,2.2 -2.98,3.94 -5.29,5.21 -2.3,1.28 -4.99,1.92 -8.08,1.92 -4.85,0 -8.75,-1.48 -11.7,-4.44 -2.96,-2.95 -4.44,-6.85 -4.44,-11.69 0,-4.85 1.48,-8.75 4.44,-11.7 2.95,-2.96 6.85,-4.44 11.7,-4.44 2.97,0 5.61,0.58 7.93,1.74 2.32,1.16 4.17,2.81 5.57,4.95l-2.63 2.36c-0.98,-2.35 -2.4,-4.22 -4.26,-5.61 -1.85,-1.4 -4.09,-2.1 -6.7,-2.1 -3.69,0 -6.68,1.34 -8.98,4.01 -2.3,2.68 -3.46,6.12 -3.46,10.34z"/>
   <path id="18" class="fil1" d="M962.16 366.47l0 31.19 -3.56 0 0 -31.19 3.56 0zm1.87 -6.69c-0.98,2.44 -2.7,4.22 -5.16,5.35l-0.9 -0.04c0.72,-0.6 1.36,-1.41 1.94,-2.45 0.58,-1.04 0.98,-1.98 1.18,-2.81l2.94 -0.05z"/>
   <path id="19" class="fil1" d="M968.4 366.47l11.32 0c3.21,0 5.79,0.99 7.76,2.98 1.96,2 2.94,4.64 2.94,7.94 0,3.21 -0.98,5.78 -2.94,7.73 -1.97,1.94 -4.55,2.92 -7.76,2.92l-7.75 0 0 9.62 -3.57 0 0 -31.19zm9.14 1.38l-5.57 0 0 18.81 5.57 0c2.82,0 5.08,-0.87 6.77,-2.59 1.7,-1.72 2.54,-4.02 2.54,-6.91 0,-2.79 -0.84,-5.04 -2.54,-6.75 -1.69,-1.71 -3.95,-2.56 -6.77,-2.56z"/>
   <polygon id="20" class="fil1" points="998.66,366.47 998.66,397.66 995.1,397.66 995.1,366.47 "/>
   <path id="21" class="fil1" d="M1007.89 393.74c-3.03,-2.97 -4.55,-6.86 -4.55,-11.67 0,-4.82 1.52,-8.71 4.55,-11.68 3.03,-2.97 6.96,-4.46 11.81,-4.46 4.84,0 8.78,1.49 11.81,4.46 3.03,2.97 4.54,6.86 4.54,11.68 0,4.81 -1.51,8.7 -4.54,11.67 -3.03,2.97 -6.97,4.46 -11.81,4.46 -4.85,0 -8.78,-1.49 -11.81,-4.46zm2.74 -22.39c-2.31,2.72 -3.46,6.29 -3.46,10.72 0,4.42 1.15,8 3.46,10.71 2.3,2.72 5.32,4.08 9.07,4.08 3.74,0 6.76,-1.36 9.06,-4.08 2.31,-2.71 3.46,-6.29 3.46,-10.71 0,-4.43 -1.15,-8 -3.46,-10.72 -2.3,-2.72 -5.32,-4.08 -9.06,-4.08 -3.75,0 -6.77,1.36 -9.07,4.08z"/>
   <path id="22" class="fil1" d="M1052.36 380.68c3.3,1.34 5.42,2.29 6.37,2.86 2.94,1.75 4.4,4.07 4.37,6.95 -0.03,1.48 -0.4,2.76 -1.11,3.83 -0.72,1.07 -1.66,1.88 -2.83,2.43 -1.18,0.55 -2.37,0.94 -3.59,1.18 -1.22,0.24 -2.5,0.36 -3.83,0.36 -2.71,0 -5.29,-0.44 -7.76,-1.32 -2.46,-0.87 -4.36,-1.88 -5.7,-3.01l2.36 -2.18c0.89,1.4 2.41,2.6 4.57,3.61 2.15,1.01 4.39,1.52 6.71,1.52 0.74,0 1.5,-0.06 2.29,-0.18 0.79,-0.12 1.67,-0.34 2.65,-0.67 0.98,-0.33 1.79,-0.88 2.43,-1.65 0.64,-0.77 0.97,-1.71 1,-2.81 0.03,-0.92 -0.14,-1.74 -0.53,-2.47 -0.39,-0.73 -0.95,-1.34 -1.69,-1.83 -0.75,-0.49 -1.39,-0.87 -1.94,-1.13 -0.55,-0.27 -1.26,-0.57 -2.12,-0.89 -5.53,-2.03 -9.39,-3.99 -11.59,-5.89 -2.2,-1.9 -3.25,-3.95 -3.16,-6.15 0.09,-2.37 1.15,-4.15 3.19,-5.32 2.03,-1.18 4.4,-1.76 7.1,-1.76 2.38,0 4.76,0.43 7.13,1.29 2.38,0.86 4.12,1.87 5.22,3.03l-2.36 2.18c-0.72,-1.45 -2.08,-2.67 -4.1,-3.65 -2.02,-0.98 -3.95,-1.47 -5.8,-1.47 -1.84,0 -3.55,0.49 -5.14,1.47 -1.59,0.98 -2.33,2.29 -2.21,3.92 0.06,0.89 0.42,1.75 1.07,2.56 0.65,0.82 1.46,1.52 2.43,2.1 0.96,0.58 1.97,1.1 3.01,1.58 1.04,0.47 2.02,0.91 2.94,1.29 0.29,0.09 0.5,0.17 0.62,0.22z"/>
   <path id="23" class="fil1" d="M1083.75 366.47l10.83 0c4.66,0 8.41,1.43 11.23,4.28 2.82,2.85 4.23,6.67 4.23,11.45 0,4.63 -1.42,8.37 -4.25,11.21 -2.84,2.84 -6.58,4.25 -11.21,4.25l-10.83 0 0 -31.19zm8.64 1.38l-5.08 0 0 28.43 5.08 0c4.25,0 7.66,-1.3 10.23,-3.9 2.57,-2.6 3.86,-6.08 3.86,-10.45 0,-4.25 -1.3,-7.65 -3.88,-10.22 -2.59,-2.57 -5.99,-3.86 -10.21,-3.86z"/>
   <path id="24" class="fil1" d="M1111.78 397.66l-1.52 0 12.39 -29.14 -0.89 -2.05 3.88 0 13.23 31.19 -3.87 0 -4.82 -11.36 -13.59 0 -4.81 11.36zm11.63 -27.36l-6.24 14.62 12.44 0 -6.2 -14.62z"/>
   <polygon id="25" class="fil1" points="408.34,420.03 412.48,420.03 422.73,438.03 433.02,420.03 436.72,420.03 436.72,451.22 433.16,451.22 433.16,422.52 422.24,441.64 420.68,441.64 410.87,424.48 410.87,451.22 409.54,451.22 409.54,422.12 "/>
   <polygon id="26" class="fil1" points="446.53,420.03 446.53,451.22 442.96,451.22 442.96,420.03 "/>
   <path id="27" class="fil1" d="M454.82 435.18c0,4.16 1.13,7.63 3.4,10.4 2.28,2.78 5.33,4.22 9.16,4.31 2.56,0 5.04,-0.49 7.44,-1.45 2.41,-0.97 4.13,-2.45 5.17,-4.44l0.72 0.63c-1.22,2.19 -2.98,3.93 -5.28,5.21 -2.31,1.28 -5,1.92 -8.09,1.92 -4.85,0 -8.74,-1.48 -11.7,-4.44 -2.96,-2.95 -4.43,-6.85 -4.43,-11.7 0,-4.84 1.47,-8.74 4.43,-11.69 2.96,-2.96 6.85,-4.44 11.7,-4.44 2.97,0 5.61,0.58 7.93,1.74 2.32,1.16 4.17,2.81 5.57,4.95l-2.63 2.36c-0.98,-2.35 -2.4,-4.22 -4.26,-5.62 -1.85,-1.39 -4.09,-2.09 -6.7,-2.09 -3.69,0 -6.68,1.34 -8.98,4.01 -2.3,2.67 -3.45,6.12 -3.45,10.34z"/>
   <path id="28" class="fil1" d="M485.52 420.03l11.32 0c3.21,0 5.79,0.99 7.75,2.98 1.96,1.99 2.94,4.64 2.94,7.93 0,2.41 -0.57,4.48 -1.71,6.22 -1.15,1.74 -2.71,2.98 -4.7,3.72l5.79 10.34 -4.1 0 -5.39 -9.62 -0.58 0 -7.76 0 0 9.62 -3.56 0 0 -31.19zm3.56 20.18l5.57 0c2.83,0 5.08,-0.86 6.78,-2.58 1.69,-1.72 2.54,-4.03 2.54,-6.91 0,-2.79 -0.85,-5.04 -2.54,-6.75 -1.7,-1.71 -3.95,-2.56 -6.78,-2.56l-5.57 0 0 18.8z"/>
   <path id="29" class="fil1" d="M515.2 447.3c-3.03,-2.97 -4.55,-6.86 -4.55,-11.68 0,-4.81 1.52,-8.7 4.55,-11.67 3.03,-2.97 6.97,-4.46 11.81,-4.46 4.84,0 8.78,1.49 11.81,4.46 3.03,2.97 4.54,6.86 4.54,11.67 0,4.82 -1.51,8.71 -4.54,11.68 -3.03,2.97 -6.97,4.46 -11.81,4.46 -4.84,0 -8.78,-1.49 -11.81,-4.46zm2.74 -22.39c-2.3,2.71 -3.45,6.29 -3.45,10.71 0,4.43 1.15,8 3.45,10.72 2.3,2.72 5.32,4.08 9.07,4.08 3.74,0 6.77,-1.36 9.07,-4.08 2.3,-2.72 3.45,-6.29 3.45,-10.72 0,-4.42 -1.15,-8 -3.45,-10.71 -2.3,-2.72 -5.33,-4.08 -9.07,-4.08 -3.75,0 -6.77,1.36 -9.07,4.08z"/>
   <path id="30" class="fil1" d="M548.04 420.03l11.32 0c3.21,0 5.8,0.99 7.76,2.98 1.96,1.99 2.94,4.64 2.94,7.93 0,2.41 -0.57,4.48 -1.72,6.22 -1.14,1.74 -2.71,2.98 -4.7,3.72l5.79 10.34 -4.1 0 -5.39 -9.62 -0.58 0 -7.75 0 0 9.62 -3.57 0 0 -31.19zm3.57 20.18l5.57 0c2.82,0 5.08,-0.86 6.77,-2.58 1.7,-1.72 2.54,-4.03 2.54,-6.91 0,-2.79 -0.84,-5.04 -2.54,-6.75 -1.69,-1.71 -3.95,-2.56 -6.77,-2.56l-5.57 0 0 18.8z"/>
   <path id="31" class="fil1" d="M574.74 420.03l11.32 0c3.2,0 5.79,0.99 7.75,2.98 1.96,1.99 2.94,4.64 2.94,7.93 0,2.41 -0.57,4.48 -1.71,6.22 -1.15,1.74 -2.71,2.98 -4.7,3.72l5.79 10.34 -4.1 0 -5.39 -9.62 -0.58 0 -7.76 0 0 9.62 -3.56 0 0 -31.19zm3.56 20.18l5.57 0c2.83,0 5.08,-0.86 6.78,-2.58 1.69,-1.72 2.54,-4.03 2.54,-6.91 0,-2.79 -0.85,-5.04 -2.54,-6.75 -1.7,-1.71 -3.95,-2.56 -6.78,-2.56l-5.57 0 0 18.8z"/>
   <polygon id="32" class="fil1" points="601.43,451.22 601.43,420.03 622.87,420.03 622.87,421.41 605,421.41 605,432.02 619.75,432.02 619.75,433.4 605,433.4 605,449.84 622.87,449.84 622.87,451.22 "/>
   <path id="33" class="fil1" d="M642.79 451.76c-4.85,0 -8.74,-1.48 -11.7,-4.44 -2.96,-2.95 -4.43,-6.85 -4.43,-11.7 0,-4.84 1.47,-8.74 4.43,-11.69 2.96,-2.96 6.85,-4.44 11.7,-4.44 2.97,0 5.61,0.58 7.93,1.74 2.32,1.16 4.17,2.81 5.57,4.95l-2.63 2.36c-0.98,-2.35 -2.4,-4.22 -4.26,-5.62 -1.85,-1.39 -4.09,-2.09 -6.7,-2.09 -3.69,0 -6.68,1.34 -8.98,4.01 -2.3,2.67 -3.46,6.12 -3.46,10.34 0,4.16 1.14,7.63 3.41,10.4 2.28,2.78 5.36,4.22 9.25,4.31 3.27,0 6.18,-0.73 8.74,-2.19l0 -10.2 3.56 -1.3 0 12.93 -2.18 -0.76c-2.68,2.26 -6.09,3.39 -10.25,3.39z"/>
   <polygon id="34" class="fil1" points="665.2,420.03 665.2,451.22 661.64,451.22 661.64,420.03 "/>
   <path id="35" class="fil1" d="M670.73 451.22l-1.52 0 12.39 -29.14 -0.89 -2.05 3.88 0 13.23 31.19 -3.87 0 -4.82 -11.36 -13.59 0 -4.81 11.36zm11.63 -27.36l-6.24 14.62 12.43 0 -6.19 -14.62zm-4.46 -4.64l-1.07 0c0.15,-3.08 1.28,-4.63 3.39,-4.63 0.92,0 1.95,0.25 3.08,0.76 1.21,0.53 2.21,0.8 2.98,0.8 0.45,0 0.79,-0.1 1.03,-0.29 0.23,-0.19 0.34,-0.51 0.31,-0.96l1.07 0c0.06,1.46 -0.19,2.55 -0.74,3.28 -0.55,0.73 -1.31,1.09 -2.29,1.09 -0.92,0 -1.95,-0.3 -3.08,-0.89 -1.04,-0.54 -1.93,-0.8 -2.67,-0.8 -1.16,0 -1.83,0.55 -2.01,1.64z"/>
   <path id="36" class="fil1" d="M702.59 447.3c-3.03,-2.97 -4.54,-6.86 -4.54,-11.68 0,-4.81 1.51,-8.7 4.54,-11.67 3.03,-2.97 6.97,-4.46 11.81,-4.46 4.84,0 8.78,1.49 11.81,4.46 3.03,2.97 4.55,6.86 4.55,11.67 0,4.82 -1.52,8.71 -4.55,11.68 -3.03,2.97 -6.97,4.46 -11.81,4.46 -4.84,0 -8.78,-1.49 -11.81,-4.46zm2.74 -22.39c-2.3,2.71 -3.45,6.29 -3.45,10.71 0,4.43 1.15,8 3.45,10.72 2.31,2.72 5.33,4.08 9.07,4.08 3.74,0 6.77,-1.36 9.07,-4.08 2.3,-2.72 3.45,-6.29 3.45,-10.72 0,-4.42 -1.15,-8 -3.45,-10.71 -2.3,-2.72 -5.33,-4.08 -9.07,-4.08 -3.74,0 -6.76,1.36 -9.07,4.08z"/>
   <path id="37" class="fil1" d="M748.81 420.03l10.82 0c4.67,0 8.41,1.42 11.23,4.27 2.83,2.86 4.24,6.68 4.24,11.46 0,4.63 -1.42,8.37 -4.26,11.21 -2.83,2.83 -6.57,4.25 -11.21,4.25l-10.82 0 0 -31.19zm8.64 1.38l-5.08 0 0 28.43 5.08 0c4.25,0 7.66,-1.3 10.23,-3.9 2.57,-2.6 3.85,-6.08 3.85,-10.45 0,-4.25 -1.29,-7.66 -3.87,-10.23 -2.59,-2.57 -5.99,-3.85 -10.21,-3.85z"/>
   <path id="38" class="fil1" d="M776.84 451.22l-1.52 0 12.39 -29.14 -0.89 -2.05 3.88 0 13.23 31.19 -3.88 0 -4.81 -11.36 -13.59 0 -4.81 11.36zm11.63 -27.36l-6.24 14.62 12.43 0 -6.19 -14.62z"/>
   <polygon id="39" class="fil1" points="819.08,451.22 839.27,421.41 820.87,421.41 820.87,420.03 844.53,420.03 824.34,449.84 842.57,449.84 842.57,451.22 "/>
   <path id="40" class="fil1" d="M850.19 447.3c-3.03,-2.97 -4.55,-6.86 -4.55,-11.68 0,-4.81 1.52,-8.7 4.55,-11.67 3.03,-2.97 6.97,-4.46 11.81,-4.46 4.84,0 8.78,1.49 11.81,4.46 3.03,2.97 4.54,6.86 4.54,11.67 0,4.82 -1.51,8.71 -4.54,11.68 -3.03,2.97 -6.97,4.46 -11.81,4.46 -4.84,0 -8.78,-1.49 -11.81,-4.46zm2.74 -22.39c-2.3,2.71 -3.45,6.29 -3.45,10.71 0,4.43 1.15,8 3.45,10.72 2.3,2.72 5.32,4.08 9.07,4.08 3.74,0 6.77,-1.36 9.07,-4.08 2.3,-2.72 3.45,-6.29 3.45,-10.72 0,-4.42 -1.15,-8 -3.45,-10.71 -2.3,-2.72 -5.33,-4.08 -9.07,-4.08 -3.75,0 -6.77,1.36 -9.07,4.08z"/>
   <polygon id="41" class="fil1" points="882.68,421.5 881.47,420.03 886.11,420.03 904.65,442.67 904.65,420.03 905.98,420.03 905.98,451.22 904.65,451.22 904.65,448.32 884.01,423.15 884.01,451.22 882.68,451.22 "/>
   <path id="42" class="fil1" d="M911.51 451.22l-1.51 0 12.38 -29.14 -0.89 -2.05 3.88 0 13.24 31.19 -3.88 0 -4.82 -11.36 -13.59 0 -4.81 11.36zm11.63 -27.36l-6.24 14.62 12.44 0 -6.2 -14.62z"/>
   <path id="43" class="fil1" d="M955.99 420.03l10.82 0c4.67,0 8.41,1.42 11.23,4.27 2.83,2.86 4.24,6.68 4.24,11.46 0,4.63 -1.42,8.37 -4.26,11.21 -2.83,2.83 -6.57,4.25 -11.21,4.25l-10.82 0 0 -31.19zm8.64 1.38l-5.08 0 0 28.43 5.08 0c4.25,0 7.66,-1.3 10.23,-3.9 2.57,-2.6 3.85,-6.08 3.85,-10.45 0,-4.25 -1.29,-7.66 -3.87,-10.23 -2.59,-2.57 -5.99,-3.85 -10.21,-3.85z"/>
   <path id="44" class="fil1" d="M984.01 451.22l-1.51 0 12.39 -29.14 -0.89 -2.05 3.88 0 13.23 31.19 -3.88 0 -4.81 -11.36 -13.59 0 -4.82 11.36zm11.64 -27.36l-6.24 14.62 12.43 0 -6.19 -14.62z"/>
   <polygon id="45" class="fil1" points="1026.93,420.03 1031.08,420.03 1041.33,438.03 1051.62,420.03 1055.32,420.03 1055.32,451.22 1051.75,451.22 1051.75,422.52 1040.84,441.64 1039.28,441.64 1029.47,424.48 1029.47,451.22 1028.13,451.22 1028.13,422.12 "/>
   <path id="46" class="fil1" d="M1060.84 451.22l-1.51 0 12.39 -29.14 -0.89 -2.05 3.87 0 13.24 31.19 -3.88 0 -4.81 -11.36 -13.59 0 -4.82 11.36zm11.63 -27.36l-6.23 14.62 12.43 0 -6.2 -14.62z"/>
   <polygon id="47" class="fil1" points="1097.3,421.36 1086.83,421.36 1086.83,420.03 1111.38,420.03 1111.38,421.36 1100.86,421.36 1100.86,451.22 1097.3,451.22 "/>
   <path id="48" class="fil1" d="M1111.78 451.22l-1.51 0 12.38 -29.14 -0.89 -2.05 3.88 0 13.24 31.19 -3.88 0 -4.82 -11.36 -13.59 0 -4.81 11.36zm11.63 -27.36l-6.24 14.62 12.44 0 -6.2 -14.62z"/>
  </g>
 </g>
</svg>
